<!DOCTYPE svg  PUBLIC '-//W3C//DTD SVG 1.0//EN'  'http://www.w3.org/TR/2001/PR-SVG-20010719/DTD/svg10.dtd'>
<svg viewBox="99 -701 591 614" width="30cm" xmlns="http://www.w3.org/2000/svg" xmlns:xlink="http://www.w3.org/1999/xlink" height="31cm">
<line stroke-width="2" y2="-257.97" x2="324.19" stroke="#000" y1="-180.96" x1="324.19" fill="none"/>
<polygon points="324.19 -265.47 329.19 -255.47 324.19 -257.97 319.19 -255.47"/>
<polygon stroke-width="2" points="324.19 -265.47 329.19 -255.47 324.19 -257.97 319.19 -255.47" stroke="#000" fill="none"/>
<line stroke-width="2" y2="-499.89" x2="185.03" stroke="#000" y1="-360.99" x1="289.2" fill="none"/>
<polygon points="180.53 -505.89 190.53 -500.89 185.03 -499.89 182.53 -494.89"/>
<polygon stroke-width="2" points="180.53 -505.89 190.53 -500.89 185.03 -499.89 182.53 -494.89" stroke="#000" fill="none"/>
<line stroke-width="2" y2="-554.33" x2="589.28" stroke="#000" y1="-554.33" x1="539.1" fill="none"/>
<polygon points="531.6 -554.33 541.6 -559.33 539.1 -554.33 541.6 -549.33"/>
<polygon stroke-width="2" points="531.6 -554.33 541.6 -559.33 539.1 -554.33 541.6 -549.33" stroke="#000" fill="none"/>
<polygon points="596.78 -554.33 586.78 -549.33 589.28 -554.33 586.78 -559.33"/>
<polygon stroke-width="2" points="596.78 -554.33 586.78 -549.33 589.28 -554.33 586.78 -559.33" stroke="#000" fill="none"/>
<line stroke-width="2" y2="-624.5" x2="270.5" stroke="#000" y1="-584.16" x1="197.89" fill="none"/>
<polygon points="191.34 -580.52 197.65 -589.75 197.89 -584.16 202.5 -581.01"/>
<polygon stroke-width="2" points="191.34 -580.52 197.65 -589.75 197.89 -584.16 202.5 -581.01" stroke="#000" fill="none"/>
<polygon points="277.05 -628.14 270.74 -618.92 270.5 -624.5 265.88 -627.66"/>
<polygon stroke-width="2" points="277.05 -628.14 270.74 -618.92 270.5 -624.5 265.88 -627.66" stroke="#000" fill="none"/>
<rect height="91.333" width="88.387" y="-700" x="280" fill="#fff"/>
<rect height="91.333" width="88.387" stroke="#000" y="-700" x="280" stroke-width="2" fill="none"/>
<rect height="91.333" width="88.387" stroke="#000" y="-700" x="280" stroke-width="2" fill="none"/>
<text font-size="12.8" font-family="sans-serif" style="text-anchor:middle" y="-649.908" x="324.194" fill="#000000">
<tspan y="-649.908" x="324.194">Remix Work</tspan>
</text>
<rect height="91.333" width="88.387" y="-600" x="440" fill="#ff93a6"/>
<rect height="91.333" width="88.387" stroke="#000" y="-600" x="440" stroke-width="2" fill="none"/>
<rect height="91.333" width="88.387" stroke="#000" y="-600" x="440" stroke-width="2" fill="none"/>
<text font-size="12.8" font-family="sans-serif" style="text-anchor:middle" y="-549.908" x="484.194" fill="#000000">
<tspan y="-549.908" x="484.194">Main Page</tspan>
</text>
<rect height="91.333" width="88.387" y="-600" x="600" fill="#fff"/>
<rect height="91.333" width="88.387" stroke="#000" y="-600" x="600" stroke-width="2" fill="none"/>
<rect height="91.333" width="88.387" stroke="#000" y="-600" x="600" stroke-width="2" fill="none"/>
<text font-size="12.8" font-family="sans-serif" style="text-anchor:middle" y="-549.908" x="644.194" fill="#000000">
<tspan y="-549.908" x="644.194">Register</tspan>
</text>
<rect height="91.333" width="88.387" y="-180" x="280" fill="#fff"/>
<rect height="91.333" width="88.387" stroke="#000" y="-180" x="280" stroke-width="2" fill="none"/>
<rect height="91.333" width="88.387" stroke="#000" y="-180" x="280" stroke-width="2" fill="none"/>
<text font-size="12.8" font-family="sans-serif" style="text-anchor:middle" y="-129.908" x="324.194" fill="#000000">
<tspan y="-129.908" x="324.194">Search</tspan>
</text>
<rect height="91.333" width="88.387" y="-360" x="100" fill="#fff"/>
<rect height="91.333" width="88.387" stroke="#000" y="-360" x="100" stroke-width="2" fill="none"/>
<rect height="91.333" width="88.387" stroke="#000" y="-360" x="100" stroke-width="2" fill="none"/>
<text font-size="12.8" font-family="sans-serif" style="text-anchor:middle" y="-309.908" x="144.194" fill="#000000">
<tspan y="-309.908" x="144.194">View Profile</tspan>
</text>
<rect height="91.333" width="88.387" y="-600" x="100" fill="#fff"/>
<rect height="91.333" width="88.387" stroke="#000" y="-600" x="100" stroke-width="2" fill="none"/>
<rect height="91.333" width="88.387" stroke="#000" y="-600" x="100" stroke-width="2" fill="none"/>
<text font-size="12.8" font-family="sans-serif" style="text-anchor:middle" y="-549.908" x="144.194" fill="#000000">
<tspan y="-549.908" x="144.194">View Work</tspan>
</text>
<line stroke-width="2" y2="-190.7" x2="484.19" stroke="#000" y1="-267.71" x1="484.19" fill="none"/>
<polygon points="484.19 -183.2 479.19 -193.2 484.19 -190.7 489.19 -193.2"/>
<polygon stroke-width="2" points="484.19 -183.2 479.19 -193.2 484.19 -190.7 489.19 -193.2" stroke="#000" fill="none"/>
<line stroke-width="2" y2="-497.94" x2="484.19" stroke="#000" y1="-360.99" x1="484.19" fill="none"/>
<polygon points="484.19 -505.44 489.19 -495.44 484.19 -497.94 479.19 -495.44"/>
<polygon stroke-width="2" points="484.19 -505.44 489.19 -495.44 484.19 -497.94 479.19 -495.44" stroke="#000" fill="none"/>
<line stroke-width="2" y2="-314.33" x2="589.28" stroke="#000" y1="-314.33" x1="529.37" fill="none"/>
<polygon points="596.78 -314.33 586.78 -309.33 589.28 -314.33 586.78 -319.33"/>
<polygon stroke-width="2" points="596.78 -314.33 586.78 -309.33 589.28 -314.33 586.78 -319.33" stroke="#000" fill="none"/>
<line stroke-width="2" y2="-188.24" x2="596.28" stroke="#000" y1="-267.71" x1="525.64" fill="none"/>
<polygon points="601.26 -182.63 590.88 -186.78 596.28 -188.24 598.36 -193.43"/>
<polygon stroke-width="2" points="601.26 -182.63 590.88 -186.78 596.28 -188.24 598.36 -193.43" stroke="#000" fill="none"/>
<line stroke-width="2" y2="-536.19" x2="198.62" stroke="#000" y1="-509.4" x1="279.01" fill="none"/>
<polygon points="191.5 -538.56 202.57 -540.14 198.62 -536.19 199.41 -530.66"/>
<polygon stroke-width="2" points="191.5 -538.56 202.57 -540.14 198.62 -536.19 199.41 -530.66" stroke="#000" fill="none"/>
<line stroke-width="2" y2="-188.24" x2="372.11" stroke="#000" y1="-267.71" x1="442.75" fill="none"/>
<polygon points="367.12 -182.63 370.03 -193.43 372.11 -188.24 377.5 -186.78"/>
<polygon stroke-width="2" points="367.12 -182.63 370.03 -193.43 372.11 -188.24 377.5 -186.78" stroke="#000" fill="none"/>
<line stroke-width="2" y2="-314.33" x2="199.12" stroke="#000" y1="-314.33" x1="279.01" fill="none"/>
<polygon points="191.62 -314.33 201.62 -319.33 199.12 -314.33 201.62 -309.33"/>
<polygon stroke-width="2" points="191.62 -314.33 201.62 -319.33 199.12 -314.33 201.62 -309.33" stroke="#000" fill="none"/>
<line stroke-width="2" y2="-370.72" x2="144.19" stroke="#000" y1="-507.68" x1="144.19" fill="none"/>
<polygon points="144.19 -363.22 139.19 -373.22 144.19 -370.72 149.19 -373.22"/>
<polygon stroke-width="2" points="144.19 -363.22 139.19 -373.22 144.19 -370.72 149.19 -373.22" stroke="#000" fill="none"/>
<line stroke-width="2" y2="-554.33" x2="199.11" stroke="#000" y1="-554.33" x1="439.02" fill="none"/>
<polygon points="191.61 -554.33 201.61 -559.33 199.11 -554.33 201.61 -549.33"/>
<polygon stroke-width="2" points="191.61 -554.33 201.61 -559.33 199.11 -554.33 201.61 -549.33" stroke="#000" fill="none"/>
<rect height="91.333" width="88.387" y="-360" x="440" fill="#7fc0ff"/>
<rect height="91.333" width="88.387" stroke="#000" y="-360" x="440" stroke-width="2" fill="none"/>
<rect height="91.333" width="88.387" stroke="#000" y="-360" x="440" stroke-width="2" fill="none"/>
<text font-size="12.8" font-family="sans-serif" style="text-anchor:middle" y="-309.908" x="484.194" fill="#000000">
<tspan y="-309.908" x="484.194">Any Page</tspan>
</text>
<line stroke-width="2" y2="-440.43" x2="372.11" stroke="#000" y1="-360.96" x1="442.75" fill="none"/>
<polygon points="367.12 -446.04 377.5 -441.88 372.11 -440.43 370.03 -435.24"/>
<polygon stroke-width="2" points="367.12 -446.04 377.5 -441.88 372.11 -440.43 370.03 -435.24" stroke="#000" fill="none"/>
<line stroke-width="2" y2="-314.33" x2="379.1" stroke="#000" y1="-314.33" x1="439.02" fill="none"/>
<polygon points="371.6 -314.33 381.6 -319.33 379.1 -314.33 381.6 -309.33"/>
<polygon stroke-width="2" points="371.6 -314.33 381.6 -319.33 379.1 -314.33 381.6 -309.33" stroke="#000" fill="none"/>
<rect height="91.333" width="88.387" y="-360" x="280" fill="#fff"/>
<rect height="91.333" width="88.387" stroke="#000" y="-360" x="280" stroke-width="2" fill="none"/>
<rect height="91.333" width="88.387" stroke="#000" y="-360" x="280" stroke-width="2" fill="none"/>
<text font-size="12.8" font-family="sans-serif" style="text-anchor:middle" y="-310.095" x="324.194" fill="#000000">
<tspan y="-310.095" x="324.194">Results</tspan>
</text>
<rect height="91.333" width="88.387" y="-540" x="280" fill="#fff"/>
<rect height="91.333" width="88.387" stroke="#000" y="-540" x="280" stroke-width="2" fill="none"/>
<rect height="91.333" width="88.387" stroke="#000" y="-540" x="280" stroke-width="2" fill="none"/>
<text font-size="12.8" font-family="sans-serif" style="text-anchor:middle" y="-490.095" x="324.194" fill="#000000">
<tspan y="-490.095" x="324.194">Create/Edit</tspan>
</text>
<rect height="91.333" width="88.387" y="-360" x="600" fill="#fff"/>
<rect height="91.333" width="88.387" stroke="#000" y="-360" x="600" stroke-width="2" fill="none"/>
<rect height="91.333" width="88.387" stroke="#000" y="-360" x="600" stroke-width="2" fill="none"/>
<text font-size="12.8" font-family="sans-serif" style="text-anchor:middle" y="-310.095" x="644.194" fill="#000000">
<tspan y="-310.095" x="644.194">TOS</tspan>
</text>
<rect height="91.333" width="88.387" y="-180" x="600" fill="#fff"/>
<rect height="91.333" width="88.387" stroke="#000" y="-180" x="600" stroke-width="2" fill="none"/>
<rect height="91.333" width="88.387" stroke="#000" y="-180" x="600" stroke-width="2" fill="none"/>
<text font-size="12.8" font-family="sans-serif" style="text-anchor:middle" y="-130.095" x="644.194" fill="#000000">
<tspan y="-130.095" x="644.194">Privacy</tspan>
</text>
<rect height="91.333" width="88.387" y="-180" x="440" fill="#fff"/>
<rect height="91.333" width="88.387" stroke="#000" y="-180" x="440" stroke-width="2" fill="none"/>
<rect height="91.333" width="88.387" stroke="#000" y="-180" x="440" stroke-width="2" fill="none"/>
<text font-size="12.8" font-family="sans-serif" style="text-anchor:middle" y="-130.095" x="484.194" fill="#000000">
<tspan y="-130.095" x="484.194">Manage</tspan>
</text>
</svg>
